<svg width="20" height="21" viewBox="0 0 20 21" fill="none" xmlns="http://www.w3.org/2000/svg">
<path d="M4.18956 20.9476V11.803C3.12769 11.5698 2.2378 11.1034 1.51989 10.4038C0.801977 9.7042 0.442605 8.88801 0.441772 7.95523V0.959351H2.9403V7.95523H4.18956V0.959351H6.68809V7.95523H7.93736V0.959351H10.4359V7.95523C10.4359 8.88801 10.0769 9.7042 9.35902 10.4038C8.64111 11.1034 7.7508 11.5698 6.68809 11.803V20.9476H4.18956ZM16.6822 20.9476V12.9523H12.9344V5.95641C12.9344 4.57389 13.5436 3.39558 14.7621 2.42149C15.9805 1.4474 17.4534 0.960017 19.1807 0.959351V20.9476H16.6822Z" fill="#E7B23F"/>
</svg>
