<svg xmlns="http://www.w3.org/2000/svg" width="24" height="21" fill="none" viewBox="0 0 24 21"><path fill="#E7B23F" d="M0.670166 20.1481V17.9095C1.37908 17.9095 1.91077 17.7229 2.26523 17.3498C2.61969 16.9767 3.31927 16.7901 4.36399 16.7901C5.40871 16.7901 6.12696 16.9767 6.51873 17.3498C6.9105 17.7229 7.44218 17.9095 8.11379 17.9095C8.78539 17.9095 9.31708 17.7229 9.70885 17.3498C10.1006 16.9767 10.8189 16.7901 11.8636 16.7901C12.9083 16.7901 13.6265 16.9767 14.0183 17.3498C14.4101 17.7229 14.9418 17.9095 15.6134 17.9095C16.285 17.9095 16.8167 17.7229 17.2084 17.3498C17.6002 16.9767 18.3185 16.7901 19.3632 16.7901C20.4079 16.7901 21.1075 16.9767 21.4619 17.3498C21.8164 17.7229 22.3481 17.9095 23.057 17.9095V20.1481C21.9563 20.1481 21.2336 19.9616 20.8888 19.5885C20.5441 19.2154 20.0355 19.0288 19.3632 19.0288C18.6916 19.0288 18.1599 19.2154 17.7681 19.5885C17.3763 19.9616 16.6581 20.1481 15.6134 20.1481C14.5687 20.1481 13.8504 19.9616 13.4586 19.5885C13.0669 19.2154 12.5352 19.0288 11.8636 19.0288C11.192 19.0288 10.6603 19.2154 10.2685 19.5885C9.87675 19.9616 9.15851 20.1481 8.11379 20.1481C7.06907 20.1481 6.35082 19.9616 5.95905 19.5885C5.56729 19.2154 5.0356 19.0288 4.36399 19.0288C3.69239 19.0288 3.18383 19.2154 2.83833 19.5885C2.49283 19.9616 1.77011 20.1481 0.670166 20.1481ZM0.670166 15.1111V12.8724C1.37908 12.8724 1.91077 12.6859 2.26523 12.3128C2.61969 11.9396 3.31927 11.7531 4.36399 11.7531C5.40871 11.7531 6.13181 11.9396 6.53328 12.3128C6.93475 12.6859 7.46158 12.8724 8.11379 12.8724C8.78539 12.8724 9.31708 12.6859 9.70885 12.3128C10.1006 11.9396 10.8189 11.7531 11.8636 11.7531C12.9083 11.7531 13.6265 11.9396 14.0183 12.3128C14.4101 12.6859 14.9418 12.8724 15.6134 12.8724C16.285 12.8724 16.8167 12.6859 17.2084 12.3128C17.6002 11.9396 18.3185 11.7531 19.3632 11.7531C20.4079 11.7531 21.1075 11.9396 21.4619 12.3128C21.8164 12.6859 22.3481 12.8724 23.057 12.8724V15.1111C21.9563 15.1111 21.2336 14.9246 20.8888 14.5514C20.5441 14.1783 20.0355 13.9918 19.3632 13.9918C18.6916 13.9918 18.1737 14.1783 17.8095 14.5514C17.4454 14.9246 16.7133 15.1111 15.6134 15.1111C14.55 15.1111 13.8273 14.9246 13.4452 14.5514C13.0631 14.1783 12.5359 13.9918 11.8636 13.9918C11.1547 13.9918 10.6278 14.1783 10.2831 14.5514C9.93831 14.9246 9.21522 15.1111 8.11379 15.1111C7.0131 15.1111 6.28068 14.9246 5.91652 14.5514C5.55236 14.1783 5.03485 13.9918 4.36399 13.9918C3.69239 13.9918 3.18421 14.1783 2.83945 14.5514C2.49469 14.9246 1.7716 15.1111 0.670166 15.1111ZM6.15494 9.40247L9.87675 5.68066L8.75741 4.56132C8.14177 3.94568 7.48882 3.49794 6.79856 3.21811C6.1083 2.93827 5.25947 2.79836 4.25206 2.79836V1.51467e-06C5.65124 1.51467e-06 6.80789 0.154098 7.72202 0.46229C8.63615 0.770482 9.53162 1.36261 10.4084 2.23868L17.5722 9.40247C17.2551 9.60768 16.9473 9.77111 16.6488 9.89274C16.3503 10.0144 16.0051 10.0748 15.6134 10.0741C14.9418 10.0741 14.4101 9.88752 14.0183 9.5144C13.6265 9.14129 12.9083 8.95473 11.8636 8.95473C10.8189 8.95473 10.1006 9.14129 9.70885 9.5144C9.31708 9.88752 8.78539 10.0741 8.11379 10.0741C7.72202 10.0741 7.37689 10.0136 7.0784 9.89274C6.77991 9.77185 6.47209 9.60843 6.15494 9.40247ZM17.1245 1.51467e-06C17.908 1.51467e-06 18.5703 0.275359 19.1113 0.826075C19.6523 1.37679 19.9228 2.03422 19.9228 2.79836C19.9228 3.58189 19.6523 4.24417 19.1113 4.78519C18.5703 5.3262 17.908 5.59671 17.1245 5.59671C16.3409 5.59671 15.6787 5.3262 15.1377 4.78519C14.5966 4.24417 14.3261 3.58189 14.3261 2.79836C14.3261 2.03347 14.5966 1.37567 15.1377 0.824956C15.6787 0.27424 16.3409 -0.000744713 17.1245 1.51467e-06Z"/></svg>