<svg width="18" height="24" viewBox="0 0 18 24" fill="none" xmlns="http://www.w3.org/2000/svg">
<path d="M8.79403 14.6879C7.77404 14.6879 6.90704 14.3309 6.19305 13.6169C5.47905 12.9029 5.12206 12.0359 5.12206 11.0159V3.67198C5.12206 2.65198 5.47905 1.78499 6.19305 1.07099C6.90704 0.356998 7.77404 0 8.79403 0C9.81402 0 10.681 0.356998 11.395 1.07099C12.109 1.78499 12.466 2.65198 12.466 3.67198V11.0159C12.466 12.0359 12.109 12.9029 11.395 13.6169C10.681 14.3309 9.81402 14.6879 8.79403 14.6879ZM7.57004 22.0319V19.4921C5.69325 19.2269 4.08697 18.4313 2.75118 17.1053C1.4154 15.7793 0.604301 14.1677 0.317887 12.2705C0.277087 11.9237 0.368887 11.6279 0.593286 11.3831C0.817684 11.1383 1.10328 11.0159 1.45008 11.0159C1.79688 11.0159 2.08778 11.1334 2.32279 11.3684C2.55779 11.6034 2.71569 11.8939 2.79647 12.2399C3.08207 13.6679 3.79117 14.8409 4.92377 15.7589C6.05637 16.6769 7.34646 17.1359 8.79403 17.1359C10.2628 17.1359 11.5582 16.672 12.6802 15.7442C13.8022 14.8164 14.506 13.6483 14.7916 12.2399C14.8732 11.8931 15.0315 11.6026 15.2665 11.3684C15.5015 11.1342 15.792 11.0167 16.138 11.0159C16.4848 11.0159 16.7704 11.1383 16.9948 11.3831C17.2192 11.6279 17.311 11.9237 17.2702 12.2705C16.9846 14.1269 16.1788 15.7283 14.8528 17.0747C13.5268 18.4211 11.9152 19.2269 10.018 19.4921V22.0319C10.018 22.3787 9.90052 22.6696 9.66551 22.9046C9.43051 23.1396 9.14001 23.2567 8.79403 23.2558C8.44723 23.2558 8.15674 23.1383 7.92255 22.9033C7.68836 22.6683 7.57086 22.3778 7.57004 22.0319ZM8.79403 12.2399C9.14083 12.2399 9.43173 12.1224 9.66674 11.8874C9.90174 11.6524 10.0188 11.3619 10.018 11.0159V3.67198C10.018 3.32518 9.90052 3.03468 9.66551 2.80049C9.43051 2.5663 9.14001 2.4488 8.79403 2.44798C8.44723 2.44798 8.15674 2.56549 7.92255 2.80049C7.68836 3.0355 7.57086 3.32599 7.57004 3.67198V11.0159C7.57004 11.3627 7.68754 11.6536 7.92255 11.8886C8.15756 12.1236 8.44805 12.2407 8.79403 12.2399Z" fill="#E7B23F"/>
</svg>
