<svg xmlns="http://www.w3.org/2000/svg" width="24" height="19" fill="none" viewBox="0 0 24 19"><path fill="#E7B23F" d="M5.90969 18.0708C5.05835 18.0708 4.33471 17.7099 3.73877 16.988C3.14283 16.2661 2.84486 15.3896 2.84486 14.3583C2.28297 14.3583 1.80213 14.1162 1.40234 13.6319C1.00255 13.1477 0.802317 12.5648 0.801636 11.8834V3.22095C0.801636 2.54033 1.00187 1.95788 1.40234 1.47361C1.80281 0.989344 2.28365 0.746797 2.84486 0.745972H16.3046C16.577 0.745972 16.8368 0.807846 17.0841 0.931595C17.3313 1.05534 17.5482 1.23065 17.7348 1.45753L22.6897 7.45934C22.877 7.68621 23.0217 7.94939 23.1238 8.24886C23.226 8.54833 23.2771 8.86265 23.2771 9.19182V11.8834C23.2771 12.564 23.0772 13.1468 22.6774 13.6319C22.2776 14.117 21.7964 14.3592 21.2339 14.3583C21.2339 15.3896 20.9359 16.2661 20.34 16.988C19.744 17.7099 19.0204 18.0708 18.169 18.0708C17.3177 18.0708 16.594 17.7099 15.9981 16.988C15.4022 16.2661 15.1042 15.3896 15.1042 14.3583H8.97453C8.97453 15.3896 8.67656 16.2661 8.08062 16.988C7.48468 17.7099 6.76103 18.0708 5.90969 18.0708ZM15.1042 6.93341H19.1906L16.1258 3.22095H15.1042V6.93341ZM8.97453 6.93341H13.061V3.22095H8.97453V6.93341ZM2.84486 6.93341H6.9313V3.22095H2.84486V6.93341ZM5.90969 15.9052C6.26726 15.9052 6.56965 15.7555 6.81688 15.456C7.06411 15.1565 7.18739 14.7906 7.18671 14.3583C7.18671 13.9252 7.06309 13.5589 6.81586 13.2594C6.56863 12.96 6.26658 12.8106 5.90969 12.8115C5.55213 12.8115 5.24973 12.9612 5.0025 13.2607C4.75527 13.5602 4.632 13.926 4.63268 14.3583C4.63268 14.7915 4.75629 15.1578 5.00352 15.4572C5.25075 15.7567 5.55281 15.906 5.90969 15.9052ZM18.169 15.9052C18.5266 15.9052 18.829 15.7555 19.0762 15.456C19.3235 15.1565 19.4467 14.7906 19.446 14.3583C19.446 13.9252 19.3224 13.5589 19.0752 13.2594C18.828 12.96 18.5259 12.8106 18.169 12.8115C17.8115 12.8115 17.5091 12.9612 17.2618 13.2607C17.0146 13.5602 16.8913 13.926 16.892 14.3583C16.892 14.7915 17.0156 15.1578 17.2629 15.4572C17.5101 15.7567 17.8121 15.906 18.169 15.9052ZM8.15724 11.8834H15.9215C16.2109 11.5121 16.543 11.2131 16.9176 10.9862C17.2921 10.7593 17.7093 10.6459 18.169 10.6459C18.6288 10.6459 19.0459 10.7593 19.4205 10.9862C19.7951 11.2131 20.1271 11.5121 20.4166 11.8834H21.2339V9.40838H2.84486V11.8834H3.66215C3.9516 11.5121 4.28363 11.2131 4.65822 10.9862C5.03281 10.7593 5.44997 10.6459 5.90969 10.6459C6.36942 10.6459 6.78658 10.7593 7.16117 10.9862C7.53576 11.2131 7.86778 11.5121 8.15724 11.8834Z"/></svg>