<svg width="21" height="21" viewBox="0 0 21 21" fill="none" xmlns="http://www.w3.org/2000/svg">
<path d="M9.52152 20.3325C8.34673 20.1143 7.2055 19.7367 6.09784 19.1997C4.99018 18.6626 4.00436 17.9158 3.14039 16.9592C2.27574 16.0026 1.57926 14.8194 1.05093 13.4096C0.522614 11.9999 0.258118 10.3216 0.257446 8.37481V8.17342C0.257446 7.93846 0.332969 7.74546 0.484013 7.59441C0.635058 7.44337 0.828059 7.36785 1.06302 7.36785H1.26441C2.12033 7.36785 3.00142 7.47693 3.90769 7.69511C4.81396 7.91328 5.66149 8.24055 6.45028 8.6769C6.63489 7.43498 7.00411 6.15949 7.55794 4.85043C8.11177 3.54138 8.77469 2.3582 9.54669 1.30088C9.74809 1.01558 10.0082 0.872925 10.3271 0.872925C10.646 0.872925 10.9061 1.01558 11.1075 1.30088C11.8795 2.3582 12.5424 3.54138 13.0962 4.85043C13.6501 6.15949 14.0193 7.43498 14.2039 8.6769C14.9927 8.24055 15.8402 7.91328 16.7465 7.69511C17.6528 7.47693 18.5339 7.36785 19.3898 7.36785H19.4905C19.7422 7.36785 19.9564 7.45612 20.1329 7.63268C20.3095 7.80923 20.3974 8.02304 20.3967 8.27411V8.37481C20.3967 10.3216 20.1322 11.9999 19.6032 13.4096C19.0743 14.8194 18.3778 16.0026 17.5138 16.9592C16.6498 17.9158 15.664 18.6626 14.5563 19.1997C13.4487 19.7367 12.3075 20.1143 11.1327 20.3325C10.9145 20.3661 10.646 20.3829 10.3271 20.3829C10.0082 20.3829 9.73969 20.3661 9.52152 20.3325ZM10.2767 18.3941C10.0921 15.625 9.25702 13.5231 7.77141 12.0885C6.28581 10.6539 4.46924 9.76845 2.32172 9.43212C2.28816 9.43212 2.28816 9.43212 2.32172 9.43212C2.50633 12.2684 3.36662 14.3998 4.90257 15.8263C6.43853 17.2529 8.22992 18.1088 10.2767 18.3941C10.3103 18.4109 10.3103 18.4153 10.2767 18.4072C10.2432 18.3991 10.2432 18.3948 10.2767 18.3941ZM8.36351 9.83491C8.69917 10.1202 9.0516 10.4602 9.42082 10.855C9.79004 11.2497 10.0921 11.6313 10.3271 11.9999C10.5788 11.6307 10.8853 11.249 11.2464 10.855C11.6076 10.4609 11.9557 10.1209 12.2907 9.83491C12.2571 8.87829 12.0685 7.87972 11.7248 6.83919C11.381 5.79866 10.9152 4.7833 10.3271 3.79312C9.73969 4.7833 9.27381 5.79866 8.92942 6.83919C8.58504 7.87972 8.3964 8.87829 8.36351 9.83491ZM11.4348 14.1145C11.6361 14.6516 11.8083 15.239 11.9513 15.8767C12.0943 16.5144 12.2074 17.2025 12.2907 17.941C12.8948 17.7396 13.5326 17.4375 14.2039 17.0347C14.8752 16.6319 15.4962 16.0949 16.0668 15.4236C16.6374 14.7523 17.1325 13.9259 17.5521 12.9444C17.9716 11.963 18.2318 10.7922 18.3325 9.43212C18.3325 9.39856 18.3325 9.39856 18.3325 9.43212C16.7549 9.66708 15.3703 10.1917 14.1787 11.006C12.9872 11.8203 12.0725 12.8565 11.4348 14.1145Z" fill="#E7B23F"/>
</svg>
