<svg width="25" height="18" viewBox="0 0 25 18" fill="none" xmlns="http://www.w3.org/2000/svg">
<path d="M12.3368 17.7495C11.6372 17.7495 11.0459 17.5108 10.5629 17.0334C10.0798 16.5561 9.83829 15.9717 9.83829 15.2803C9.83829 14.589 10.0798 14.0046 10.5629 13.5273C11.0459 13.0499 11.6372 12.8112 12.3368 12.8112C13.0364 12.8112 13.6277 13.0499 14.1108 13.5273C14.5938 14.0046 14.8353 14.589 14.8353 15.2803C14.8353 15.9717 14.5938 16.5561 14.1108 17.0334C13.6277 17.5108 13.0364 17.7495 12.3368 17.7495ZM6.69014 12.1692L4.59137 10.0458C5.57413 9.07458 6.72778 8.30519 8.05234 7.73762C9.37689 7.17005 10.8051 6.88593 12.3368 6.88528C13.8692 6.88528 15.2977 7.17334 16.6223 7.74947C17.9469 8.32561 19.1002 9.1075 20.0823 10.0952L17.9835 12.1692C17.2506 11.4449 16.4011 10.877 15.435 10.4655C14.4689 10.054 13.4362 9.84824 12.3368 9.84824C11.2375 9.84824 10.2047 10.054 9.23864 10.4655C8.27254 10.877 7.42304 11.4449 6.69014 12.1692ZM2.44264 7.9717L0.343872 5.89762C1.8763 4.3503 3.66692 3.14042 5.71571 2.26799C7.76451 1.39556 9.97154 0.959351 12.3368 0.959351C14.7021 0.959351 16.9091 1.39556 18.9579 2.26799C21.0067 3.14042 22.7973 4.3503 24.3298 5.89762L22.231 7.9717C20.9484 6.70421 19.462 5.7126 17.7716 4.99688C16.0813 4.28116 14.2697 3.92297 12.3368 3.92231C10.4046 3.92231 8.59335 4.2805 6.90301 4.99688C5.21268 5.71326 3.72588 6.70486 2.44264 7.9717Z" fill="#E7B23F"/>
</svg>
